<?xml version="1.0" encoding="utf-8"?>
<!-- Generator: Adobe Illustrator 19.1.0, SVG Export Plug-In . SVG Version: 6.00 Build 0)  -->
<!DOCTYPE svg PUBLIC "-//W3C//DTD SVG 1.1//EN" "http://www.w3.org/Graphics/SVG/1.1/DTD/svg11.dtd">
<svg version="1.1" id="Layer_1" xmlns="http://www.w3.org/2000/svg" xmlns:xlink="http://www.w3.org/1999/xlink" x="0px" y="0px"
	 viewBox="0 0 102.2 50" enable-background="new 0 0 102.2 50" xml:space="preserve">
<g>
	<g>
		<path fill="#CBCBCB" d="M53.5,2.2c4.5,0,9.1,0,13.8,0"/>
	</g>
</g>
<g>
	<polygon fill="none" stroke="#CBCBCB" stroke-width="2" stroke-miterlimit="10" points="2.2,2.2 100.2,2.2 100.2,48.2 50.2,48.2 
		50.2,39.2 25.2,39.2 25.2,48.2 1.9,48.2 	"/>
	<line fill="none" stroke="#CBCBCB" stroke-width="2" stroke-miterlimit="10" x1="2.2" y1="26.2" x2="30.2" y2="26.2"/>
	<line fill="none" stroke="#CBCBCB" stroke-width="2" stroke-miterlimit="10" x1="33.2" y1="26.2" x2="54.2" y2="26.2"/>
	<line fill="none" stroke="#CBCBCB" stroke-width="2" stroke-miterlimit="10" x1="63.2" y1="26.2" x2="100.2" y2="26.2"/>
	<polyline fill="none" stroke="#CBCBCB" stroke-width="2" stroke-miterlimit="10" points="75.2,29.2 75.2,41.6 75.2,46.2 	"/>
	<polyline fill="none" stroke="#CBCBCB" stroke-width="2" stroke-miterlimit="10" points="75.2,42.2 84.2,42.2 84.2,48.2 	"/>
	<line fill="none" stroke="#CBCBCB" stroke-width="2" stroke-miterlimit="10" x1="38.2" y1="15.2" x2="38.2" y2="26.2"/>
	<line fill="none" stroke="#CBCBCB" stroke-width="2" stroke-miterlimit="10" x1="9.2" y1="12.2" x2="9.2" y2="26.2"/>
	<line fill="none" stroke="#CBCBCB" stroke-width="2" stroke-miterlimit="10" x1="9.2" y1="1.2" x2="9.2" y2="8.2"/>
	<line fill="none" stroke="#CBCBCB" stroke-width="2" stroke-miterlimit="10" x1="87.2" y1="1.2" x2="87.2" y2="11.2"/>
	<line fill="none" stroke="#CBCBCB" stroke-width="2" stroke-miterlimit="10" x1="87.2" y1="15.2" x2="100.2" y2="15.2"/>
	<line fill="none" stroke="#CBCBCB" stroke-width="2" stroke-miterlimit="10" x1="67.2" y1="1.2" x2="67.2" y2="10.2"/>
</g>
</svg>
