<?xml version="1.0" encoding="utf-8"?>
<!-- Generator: Adobe Illustrator 19.1.0, SVG Export Plug-In . SVG Version: 6.00 Build 0)  -->
<!DOCTYPE svg PUBLIC "-//W3C//DTD SVG 1.1//EN" "http://www.w3.org/Graphics/SVG/1.1/DTD/svg11.dtd">
<svg version="1.1" id="Layer_1" xmlns="http://www.w3.org/2000/svg" xmlns:xlink="http://www.w3.org/1999/xlink" x="0px" y="0px"
	 viewBox="0 0 109.3 59.3" enable-background="new 0 0 109.3 59.3" xml:space="preserve">
<g>
	<g>
		<path fill="#CBCBCB" d="M52.3,0.6c4.5,0,9.1,0,13.8,0"/>
	</g>
</g>
<path fill="#CBCBCB" d="M65.4,0.6l-0.7,0c-4,0-8.2,0-12.2,0c-15.3,0-27.1,0-42.4,0C3.9,0.6,1,5.5,1,9.2c0,16.6,0,29.3,0,45.9
	c0,2.7,2.5,4,5.2,4c1.1,0,2.6,0,2.6,0h0.8c2.7,0,5.3-1.3,5.3-4v-11l0-3.4c0-2.7,1.7-5.1,6.3-5.1h12.3h12H46
	c10.7,0,19.5-8.4,19.5-19.1V0.6"/>
<path fill="#CBCBCB" d="M68.1,0.6c11.5,0,21.4,0,32.3,0c5.9,0,8.6,4.9,8.6,8.5c-0.1,16.6,0,29.1,0,45.7c0,2.6-1.6,4.3-4.2,4.3
	c-10.6,0-22.7,0-33.3,0c-1.6,0-1.6-0.6-2.1-2.2c-0.9-2.1-1-1.5-1.6-3.3c-0.9-1.6-1.4-3.1-2.9-4.4c-3.8-3-21-2.9-24,0.2
	c-1.9,2-2.2,2.5-3.2,4.7c-0.7,1.6-0.2,0.5-1.2,2.7c-0.7,1.8-0.5,2.5-2.3,2.5c-8.7,0-10.5,0-18.2,0l-1.5,0c1.8,0,3.6-1.3,3.6-4v-7.9
	l0-3.4c0-2.7,1.5-5.1,4.2-5.1h12.3h12h0.5c10.7,0,21.5-9.5,21.5-20.2v-18"/>
</svg>
