<?xml version="1.0" encoding="utf-8"?>
<!-- Generator: Adobe Illustrator 19.1.0, SVG Export Plug-In . SVG Version: 6.00 Build 0)  -->
<!DOCTYPE svg PUBLIC "-//W3C//DTD SVG 1.1//EN" "http://www.w3.org/Graphics/SVG/1.1/DTD/svg11.dtd">
<svg version="1.1" id="Layer_1" xmlns="http://www.w3.org/2000/svg" xmlns:xlink="http://www.w3.org/1999/xlink" x="0px" y="0px"
	 viewBox="0 0 101 59.3" enable-background="new 0 0 101 59.3" xml:space="preserve">
<g>
	<g>
		<path fill="#CBCBCB" d="M52.3,0.6c4.5,0,9.1,0,13.8,0"/>
	</g>
</g>
<g>
	<g>
		<path fill="#CBCBCB" d="M50.4,1.5c15,0,30,0,45.1,0c2.9,0,4.4,2,4.4,4.4c-0.1,16.3,0,32.5,0,48.8c0,2.6-1.6,4.2-4.1,4.2
			c-10.4,0-20.8,0-31.2,0c-1.6,0-2.3-0.5-2.7-2.1c-1.2-4.1-2.3-8.3-3.6-12.4c-0.5-1.5-1.3-3-2.2-4.3c-2.4-3.5-8.3-3.4-10.8,0.1
			c-1.3,1.9-2.1,3.9-2.7,6.1c-1,3.4-2,6.9-2.9,10.4c-0.5,1.7-1.2,2.2-2.9,2.2c-10.5,0-21,0-31.5,0c-2.7,0-4.2-1.5-4.2-4.2
			c0-16.3,0-32.5,0-48.8c0-2.6,1.8-4.4,4.3-4.3C20.4,1.5,35.4,1.5,50.4,1.5z M72.6,40.5c5.8,0,10.5-4.6,10.5-10.4
			c0-5.7-4.7-10.4-10.4-10.4c-5.3,0-10.4,4.1-10.5,10.4C62.2,36.6,67.6,40.6,72.6,40.5z M38.7,30.2c0.2-5.1-4.1-10.4-10.3-10.4
			c-5.7,0-10.5,4.7-10.5,10.4c0,5.7,4.7,10.3,10.4,10.4C34.1,40.6,38.9,35.6,38.7,30.2z"/>
	</g>
</g>
</svg>
